<svg width="20" height="20" viewBox="0 0 20 20" fill="none" xmlns="http://www.w3.org/2000/svg"><g clip-path="url(#clip0)" fill="#fff"><path d="M19.703 7.229a1.382 1.382 0 00-1.087-.521h-3.852l-2.088-4.783a.586.586 0 10-1.074.47l1.883 4.313h-6.97l1.883-4.314a.586.586 0 00-1.074-.469L5.236 6.708H1.384c-.427 0-.823.19-1.087.521a1.35 1.35 0 00-.263 1.148l2.057 8.984a1.373 1.373 0 001.35 1.065h13.118c.651 0 1.206-.438 1.35-1.065l2.056-8.984a1.35 1.35 0 00-.262-1.148zM16.56 17.254H3.441a.21.21 0 01-.207-.155L1.177 8.115a.179.179 0 01.036-.156.213.213 0 01.171-.08h3.34l-.153.352a.586.586 0 001.073.47l.359-.821h7.994l.359.82a.586.586 0 101.074-.469l-.154-.351h3.34a.21.21 0 01.17.08.18.18 0 01.037.155l-2.057 8.984a.21.21 0 01-.207.155z"/><path d="M6.484 10.419a.586.586 0 00-.586.585v4.297a.586.586 0 001.172 0v-4.296a.586.586 0 00-.586-.586zm3.516 0a.586.586 0 00-.586.585v4.297a.586.586 0 001.172 0v-4.296a.586.586 0 00-.586-.586zm3.516 0a.586.586 0 00-.586.585v4.297a.586.586 0 101.172 0v-4.296a.586.586 0 00-.586-.586z"/></g><defs><clipPath id="clip0"><path fill="#fff" d="M0 0h20v20H0z"/></clipPath></defs></svg>