<svg width="105" height="47" viewBox="0 0 105 47" fill="none" xmlns="http://www.w3.org/2000/svg"><path fill-rule="evenodd" clip-rule="evenodd" d="M40.494 49.124l10.69-3.135h.001c12.885-3.505 21.775-3.44 36.827-1.966h.006l11.883 1.168c-15.615 1.748-41.933 3.396-59.407 3.933zm47.57-34.034a.707.707 0 00-.135.045c-14.795 1.51-23.646 1.582-36.231-1.931a.743.743 0 00-.112-.06L39.598 9.765c17.519.554 44.864 2.072 60.604 3.936L88.065 15.09z" fill="#5AA1E1"/><path fill-rule="evenodd" clip-rule="evenodd" d="M40.16 1.11a5.645 5.645 0 00-1.795 3.231 5.483 5.483 0 00.01 1.79h-8.627a14.292 14.292 0 00-6.2-1.412h-5.033a14.363 14.363 0 00-8.383 2.695c-.147.02-.288.054-.432.081-.138.026-.276.046-.41.077-.167.038-.328.088-.49.134-.131.037-.263.07-.39.112-.163.053-.32.118-.478.18-.123.047-.247.09-.367.142-.157.068-.307.147-.46.222-.115.058-.233.11-.345.172-.15.082-.29.173-.434.262-.11.067-.222.13-.329.201-.14.095-.274.199-.41.3-.1.076-.206.148-.304.227-.131.107-.255.222-.38.333-.095.086-.193.166-.285.255-.12.116-.232.242-.347.363-.087.093-.18.181-.262.279-.11.127-.21.261-.315.393-.079.101-.162.198-.237.303-.099.137-.188.28-.28.422-.07.107-.144.212-.21.32-.087.147-.163.298-.243.45-.06.113-.126.223-.182.338-.074.154-.137.314-.204.472-.05.118-.106.233-.151.354-.063.165-.113.336-.167.504-.038.12-.083.235-.116.356-.05.178-.087.363-.127.545-.026.116-.059.229-.08.346-.037.201-.06.407-.085.613-.013.102-.032.202-.042.305-.028.31-.043.623-.043.94v1.177c-.263.66-.473 1.34-.63 2.035C.32 23.014 0 26.173 0 29.524c0 3.35.319 6.51.897 8.896.156.695.367 1.375.63 2.036v1.177c.001.893.12 1.783.352 2.646l.021.09c.078.282.17.557.27.828l.01.03c.208.553.465 1.086.766 1.593l.006.013c.147.246.304.485.47.718l.016.023c.31.427.652.829 1.024 1.202.044.043.083.09.127.134.59.571 1.246 1.067 1.955 1.477.057.033.11.071.168.103.22.121.447.231.676.337.042.018.08.042.123.06.835.37 1.717.62 2.62.747l.09.06c.166.114.332.225.5.333.007.004.014.005.02.009a14.328 14.328 0 007.774 2.293h5.034c2.145 0 4.263-.482 6.2-1.413h8.65a5.42 5.42 0 00-.034 1.895c.448 2.67 2.885 4.604 4.565 4.315a1.35 1.35 0 00.871-.492c.218-.27.325-.614.3-.961a7.043 7.043 0 00-.364-1.787 17.926 17.926 0 01-.465-1.92 13.07 13.07 0 01-.127-1.05h40.072a14.289 14.289 0 006.2 1.412h5.033a14.365 14.365 0 008.246-2.596h2.418a14.85 14.85 0 0010.528-4.423A15.128 15.128 0 00120 36.674V22.372c0-3.988-1.567-7.813-4.358-10.636a14.85 14.85 0 00-10.528-4.422h-2.418a14.367 14.367 0 00-8.246-2.596h-5.033a14.31 14.31 0 00-6.2 1.414H43.154c.028-.307.064-.622.118-.945.12-.648.275-1.29.465-1.921a7.052 7.052 0 00.365-1.787 1.375 1.375 0 00-.3-.96 1.351 1.351 0 00-.872-.49c-.826-.145-1.86.261-2.77 1.082zM3.226 15.86a8.559 8.559 0 01.319-1.2 8.63 8.63 0 01.285-.73c.03-.066.055-.133.085-.197.137-.288.29-.568.457-.839.038-.06.08-.117.118-.176.142-.217.293-.427.454-.629.053-.066.105-.133.16-.198a8.39 8.39 0 01.649-.697c.024-.023.05-.043.075-.065a8.376 8.376 0 01.882-.71 8.33 8.33 0 01.696-.44c.043-.025.084-.053.128-.077.28-.15.568-.284.864-.401l.084-.03a149.632 149.632 0 01-5.259 6.407c.003-.006.004-.012.005-.018h-.002zm5.71 33.886a8.28 8.28 0 01-.99-.398c-.068-.033-.138-.064-.205-.099a8.353 8.353 0 01-.909-.531c-.05-.034-.097-.071-.146-.106a8.44 8.44 0 01-.747-.595c-.044-.04-.09-.077-.133-.117a8.48 8.48 0 01-.717-.76c-.05-.058-.097-.119-.144-.179a8.548 8.548 0 01-.607-.857l-.014-.022a8.569 8.569 0 01-.492-.957c-.032-.072-.064-.144-.094-.217a8.527 8.527 0 01-.349-1.011c-.014-.053-.023-.107-.037-.16a8.564 8.564 0 01-.184-.97l-.018-.129a148.124 148.124 0 015.809 7.116l-.022-.008zm32.799 4.486c.128.706.296 1.404.502 2.091.132.41.232.83.3 1.255-.734-.038-2.326-1.184-2.636-3.03a3.715 3.715 0 01-.05-.614c0-.343.044-.685.132-1.017h1.596c.031.406.077.852.156 1.315zM94.45 6.297a12.842 12.842 0 017.548 2.449c.132.095.29.146.453.146h2.663a13.296 13.296 0 019.425 3.96 13.541 13.541 0 013.901 9.52v14.303a13.538 13.538 0 01-3.901 9.522 13.293 13.293 0 01-9.425 3.96h-2.663a.775.775 0 00-.453.146 12.837 12.837 0 01-7.548 2.45h-5.033a12.78 12.78 0 01-5.681-1.333.775.775 0 00-.341-.08H29.57a.77.77 0 00-.34.08 12.783 12.783 0 01-5.682 1.331h-5.034a12.789 12.789 0 01-6.833-1.974 145.36 145.36 0 00-8.615-10.604c-.01-.05-.02-.1-.027-.128a.797.797 0 00-.048-.14 10.763 10.763 0 01-.58-1.86c-.55-2.266-.853-5.292-.853-8.52 0-3.229.303-6.255.853-8.522.137-.636.331-1.259.58-1.86.018-.039.055-.171.067-.212a.803.803 0 00.028-.21v-.315c.32-.36.642-.72.965-1.09a148.864 148.864 0 006.98-8.607 12.82 12.82 0 017.483-2.413h5.034c1.97 0 3.913.456 5.681 1.332.106.053.223.08.34.08h53.824a.768.768 0 00.34-.08 12.781 12.781 0 015.682-1.332h5.035zM42.24 2.83a19.095 19.095 0 00-.504 2.09c-.072.425-.116.827-.148 1.212h-1.636a3.89 3.89 0 01-.05-1.525 4.115 4.115 0 011.296-2.319 2.48 2.48 0 011.34-.706 8.66 8.66 0 01-.298 1.248zm-7.702 5.687c-.012.005-.027.005-.04.01a.783.783 0 00-.227.151.76.76 0 00-.056.068.732.732 0 00-.09.11 41.348 41.348 0 00-5.53 20.668 41.348 41.348 0 005.53 20.668.77.77 0 00.09.11.817.817 0 00.054.067.773.773 0 00.23.151c.01.004.021.004.03.008a.767.767 0 00.246.047c.011 0 .02.006.03.006 19.136-.255 55.143-2.43 70.011-4.612l.04.003a.774.774 0 00.764-.433 35.81 35.81 0 003.778-16.016 35.81 35.81 0 00-3.778-16.016.77.77 0 00-.764-.433l-.101.009c-15.267-2.247-50.706-4.362-69.95-4.618-.011 0-.02.005-.03.006a.756.756 0 00-.237.046zm-4.384 21.007c0-6.782 1.73-13.45 5.026-19.36l15.975 4.04a50.595 50.595 0 000 30.64L35.18 48.883a39.749 39.749 0 01-5.026-19.36zm56.56-13.28c.638 3.806.952 8.155.952 13.278 0 5.136-.324 9.493-.98 13.305-13.74-1.26-22.228-1.294-34.004 1.635a49.013 49.013 0 01-.008-29.852c11.786 2.933 20.277 2.898 34.04 1.635zM41.742 48.85l10.24-2.59c12.344-3.204 20.86-3.144 35.278-1.796h.006l9.948.853C82.257 46.915 58.48 48.36 41.742 48.85v-.001zm66.1-19.325a34.23 34.23 0 01-3.381 14.832l-16.21-1.391c.656-3.868.974-8.276.974-13.441 0-5.165-.31-9.575-.951-13.444l16.187-1.388a34.258 34.258 0 013.381 14.832zm-20.55-14.942a.73.73 0 00-.129.04c-14.173 1.32-22.651 1.383-34.707-1.689a.765.765 0 00-.107-.052l-10.617-2.686c16.781.485 40.386 1.908 55.463 3.537l-9.902.85z" fill="#333"/></svg>