<svg width="127" height="80" viewBox="0 0 127 80" fill="none" xmlns="http://www.w3.org/2000/svg"><g clip-path="url(#clip0_148_4)"><path d="M116.489 33.697L74.464 6.675c-6.735-4.33-18.726-3.811-26.784 1.16L12.018 29.837c-8.058 4.97-9.13 12.511-2.396 16.842L51.648 73.7c6.735 4.33 18.727 3.81 26.784-1.16l35.663-22.002c8.057-4.971 9.13-12.512 2.395-16.842z" fill="#0068A9" stroke="#0083C1" stroke-width="8.161" stroke-linecap="round" stroke-linejoin="round"/><path fill-rule="evenodd" clip-rule="evenodd" d="M38 48.693l10.43.353 7.446-12.7 4.15-.026-6.948 13.298 14.175.084-1.585 3.409-15.406-.01L48.182 58l25.74-.079L88.75 31.457l-10.608-.253-7.578 13.524-4.303-.061 7.8-13.21-14.874-.085 1.585-3.408 14.278.234 3.908-5.123L52.949 23 38 48.693z" fill="#ECF1F3"/></g><defs><clipPath id="clip0_148_4"><path fill="#fff" d="M0 0h126.512v80H0z"/></clipPath></defs></svg>