<svg xmlns="http://www.w3.org/2000/svg"><symbol id="arrowDown" viewBox="0 0 14 8"><path d="M1 1l5.955 6L13 1"/></symbol><symbol id="enter" viewBox="0 0 20 20"><path d="M20 10c0-5.527-4.473-10-10-10S0 4.473 0 10c0 5.478 4.435 10 10 10 5.542 0 10-4.497 10-10zM10 1.172c4.868 0 8.828 3.96 8.828 8.828 0 1.78-.53 3.492-1.512 4.942-3.944-4.242-10.681-4.25-14.632 0A8.787 8.787 0 011.172 10c0-4.868 3.96-8.828 8.828-8.828zM3.415 15.879c3.506-3.934 9.665-3.933 13.17 0a8.82 8.82 0 01-13.17 0zm6.767-5.293a3.52 3.52 0 003.516-3.516V5.898a3.52 3.52 0 00-3.516-3.515 3.52 3.52 0 00-3.515 3.515V7.07a3.52 3.52 0 003.515 3.516zM7.838 5.898a2.346 2.346 0 012.344-2.343 2.346 2.346 0 012.344 2.343V7.07a2.346 2.346 0 01-2.344 2.344A2.346 2.346 0 017.838 7.07V5.898z"/></symbol><symbol id="cart" viewBox="0 0 20 20"><path d="M19.703 7.229a1.382 1.382 0 00-1.087-.521h-3.852l-2.088-4.783a.586.586 0 10-1.074.47l1.883 4.313h-6.97l1.883-4.314a.586.586 0 00-1.074-.469L5.236 6.708H1.384c-.427 0-.823.19-1.087.521a1.35 1.35 0 00-.263 1.148l2.057 8.984a1.373 1.373 0 001.35 1.065h13.118c.651 0 1.206-.438 1.35-1.065l2.056-8.984a1.35 1.35 0 00-.262-1.148zM16.56 17.254H3.441a.21.21 0 01-.207-.155L1.177 8.115a.179.179 0 01.036-.156.213.213 0 01.171-.08h3.34l-.153.352a.586.586 0 001.073.47l.359-.821h7.994l.359.82a.586.586 0 101.074-.469l-.154-.351h3.34a.21.21 0 01.17.08.18.18 0 01.037.155l-2.057 8.984a.21.21 0 01-.207.155zM6.484 10.42a.586.586 0 00-.586.585v4.297a.586.586 0 001.172 0v-4.296a.586.586 0 00-.586-.586zm3.516 0a.586.586 0 00-.586.585v4.297a.586.586 0 001.172 0v-4.296A.586.586 0 0010 10.42zm3.516 0a.586.586 0 00-.586.585v4.297a.586.586 0 101.172 0v-4.296a.586.586 0 00-.586-.586z"/></symbol><symbol id="wat" viewBox="0 0 16 16"><path d="M8.002 0h-.004C3.587 0 0 3.588 0 8a7.94 7.94 0 001.523 4.689l-.997 2.972 3.075-.983A7.93 7.93 0 008.002 16C12.413 16 16 12.411 16 8s-3.587-8-7.998-8zm4.655 11.297c-.193.545-.96.997-1.57 1.129-.418.089-.964.16-2.802-.602-2.351-.974-3.865-3.363-3.983-3.518-.113-.155-.95-1.265-.95-2.413s.583-1.707.818-1.947c.193-.197.512-.287.818-.287.099 0 .188.005.268.009.235.01.353.024.508.395.193.465.663 1.613.719 1.731.057.118.114.278.034.433-.075.16-.141.231-.26.367-.117.136-.23.24-.347.386-.108.127-.23.263-.094.498.136.23.606.997 1.298 1.613.893.795 1.617 1.049 1.876 1.157.193.08.423.061.564-.089.179-.193.4-.513.625-.828.16-.226.362-.254.574-.174.216.075 1.359.64 1.594.757.235.118.39.174.447.273.056.099.056.564-.137 1.11z"/></symbol><symbol id="mailto" viewBox="0 0 24 24"><path d="M12 0C5.375 0 .002 5.373.002 12s5.373 12 12 12 12-5.373 12-12S18.628 0 12 0zm0 4.215l7.102 4.428H4.9L12 4.215zm7.19 11.499c0 .71-.576 1.286-1.286 1.286H6.098c-.71 0-1.286-.576-1.286-1.286v-6.79c0-.074.008-.147.02-.22l6.785 4.231c.008.006.017.01.026.014l.027.014a.71.71 0 00.148.058l.015.003a.733.733 0 00.168.022.717.717 0 00.168-.022l.016-.003a.72.72 0 00.175-.072c.008-.005.017-.008.026-.014l6.784-4.23c.013.072.02.144.02.22v6.789z"/></symbol><symbol id="call" viewBox="0 0 24 24"><path d="M20.483 3.513C15.796-1.173 8.2-1.171 3.514 3.516c-4.686 4.687-4.684 12.284.003 16.97 4.687 4.686 12.284 4.685 16.97-.003a12 12 0 00-.003-16.97zm-2.31 13.202l-.001.002v-.004l-.608.604a3.2 3.2 0 01-3.02.864 10.631 10.631 0 01-3.088-1.384 14.27 14.27 0 01-2.436-1.964 14.379 14.379 0 01-1.82-2.208 11.2 11.2 0 01-1.37-2.768 3.2 3.2 0 01.8-3.268l.712-.712c.198-.199.52-.2.719-.002l.001.002 2.248 2.248a.508.508 0 010 .72l-1.32 1.32c-.378.375-.426.97-.112 1.4a15.434 15.434 0 001.58 1.844c.64.643 1.337 1.228 2.08 1.748.43.3 1.013.25 1.385-.12l1.276-1.296a.508.508 0 01.72 0l2.252 2.256c.198.198.2.52.001.718z" fill="#fff"/></symbol></svg>